<svg xmlns="http://www.w3.org/2000/svg" width="15" height="14.375" viewBox="0 0 15 14.375">
  <defs>
    <style>
      .edit-comment {
      fill: #822ef7;
      }
    </style>
  </defs>
  <path class="edit-comment" d="M11.875-1.25V-9.375L12.5-10V-.625H0V-12.5H10l-.625.625H.625V-1.25ZM6.8-6.406l6.68-6.68.43.43L6.875-5.625H5.625v-1.25l7.031-7.031.43.43L6.406-6.8Zm8.047-7.969a.759.759,0,0,1,.156.391.759.759,0,0,1-.156.391l-.469.469-.82-.82-.43-.43.469-.469A.759.759,0,0,1,13.984-15a.759.759,0,0,1,.391.156Z" transform="translate(0 15)"/>
</svg>
