<svg xmlns="http://www.w3.org/2000/svg" width="19.0059" height="14.5737" viewBox="0 0 19.0059 14.5737"><defs><style>.quote-svg{fill:#000;}</style></defs><path class="quote-svg" d="M0,14.5737V10.7383A12.26,12.26,0,0,1,.6289,7.0205a15.66,15.66,0,0,1,1.832-3.814A13.63,13.63,0,0,1,5.3691,0L8.0967,2.2158a27.8828,27.8828,0,0,0-2.333,3.9951,10.1925,10.1925,0,0,0-.99,4.4424v3.92Zm10.9092,0V10.7383a12.26,12.26,0,0,1,.6289-3.7178,15.66,15.66,0,0,1,1.832-3.814A13.6094,13.6094,0,0,1,16.2783,0l2.7275,2.2158a27.8828,27.8828,0,0,0-2.333,3.9951,10.1933,10.1933,0,0,0-.9912,4.4424v3.92Z"/></svg>