<svg xmlns="http://www.w3.org/2000/svg" width="17.0669" height="13.5" viewBox="0 0 17.0669 13.5"><defs><style>.reply-svg{fill:#822ef7;}</style></defs><title>replay-arrow</title><path class="reply-svg" d="M4.2314,8.4761A4.06,4.06,0,0,1,2.106,7.9,4.3563,4.3563,0,0,1,.5718,6.3633,4.0922,4.0922,0,0,1,0,4.2314,4.116,4.116,0,0,1,.3291,2.5889,4.2783,4.2783,0,0,1,2.5884.3291,4.1268,4.1268,0,0,1,4.2314,0h.6519V1.4063H4.2314a2.7136,2.7136,0,0,0-1.416.3833A2.9319,2.9319,0,0,0,1.79,2.8125a2.7045,2.7045,0,0,0-.3833,1.4189,2.756,2.756,0,0,0,.38,1.4253A2.89,2.89,0,0,0,2.8091,6.686,2.7207,2.7207,0,0,0,4.2314,7.07H15.5708V8.4761ZM11.3394,13.5l-.9717-.9844,4.7559-4.7427L10.3677,3.0171l.9717-.9717,5.7275,5.7275Z"/></svg>